Coordinates
nRows=285
nColumns=2
inDegrees=yes
endheader
time	ankle_angle_r	
2.39501	 -4.608719	
2.42827	 -4.643586	
2.46154	 -4.665601	
2.4948	 -4.672697	
2.52806	 -4.668272	
2.56133	 -4.659332	
2.59459	 -4.662539	
2.62786	 -4.686874	
2.66112	 -4.715224	
2.69438	 -4.731009	
2.72765	 -4.744074	
2.76091	 -4.768236	
2.79418	 -4.798480	
2.82744	 -4.819043	
2.8607	 -4.817979	
2.89397	 -4.800444	
2.92723	 -4.784744	
2.9605	 -4.780651	
2.99376	 -4.785341	
3.02702	 -4.790684	
3.06029	 -4.789863	
3.09355	 -4.788020	
3.12682	 -4.791825	
3.16008	 -4.794877	
3.19334	 -4.793529	
3.22661	 -4.792545	
3.25987	 -4.791241	
3.29314	 -4.788661	
3.3264	 -4.787948	
3.35966	 -4.788808	
3.39293	 -4.791935	
3.42619	 -4.800131	
3.45946	 -4.809537	
3.49272	 -4.811814	
3.52598	 -4.802546	
3.55925	 -4.787239	
3.59251	 -4.778005	
3.62578	 -4.777853	
3.65904	 -4.779319	
3.6923	 -4.779835	
3.72557	 -4.781440	
3.75883	 -4.783746	
3.7921	 -4.786257	
3.82536	 -4.785076	
3.85862	 -4.776584	
3.89189	 -4.765276	
3.92515	 -4.752388	
3.95842	 -4.734695	
3.99168	 -4.715498	
4.02494	 -4.701307	
4.05821	 -4.699877	
4.09147	 -4.712299	
4.12474	 -4.723731	
4.158	 -4.727444	
4.19126	 -4.736324	
4.22453	 -4.752893	
4.25779	 -4.765289	
4.29106	 -4.768392	
4.32432	 -4.761816	
4.35758	 -4.749838	
4.39085	 -4.745440	
4.42411	 -4.751623	
4.45738	 -4.755366	
4.49064	 -4.746457	
4.5239	 -4.724251	
4.55717	 -4.695657	
4.59043	 -4.666995	
4.6237	 -4.632809	
4.65696	 -4.594046	
4.69022	 -4.567749	
4.72349	 -4.557618	
4.75675	 -4.551934	
4.79002	 -4.547610	
4.82328	 -4.544977	
4.85654	 -4.542226	
4.88981	 -4.544122	
4.92307	 -4.551912	
4.95634	 -4.557770	
4.9896	 -4.558426	
5.02286	 -4.554516	
5.05613	 -4.547497	
5.08939	 -4.544735	
5.12266	 -4.549588	
5.15592	 -4.558558	
5.18918	 -4.570060	
5.22245	 -4.577439	
5.25571	 -4.574204	
5.28898	 -4.568773	
5.32224	 -4.569187	
5.3555	 -4.571627	
5.38877	 -4.573494	
5.42203	 -4.576160	
5.4553	 -4.580881	
5.48856	 -4.591158	
5.52182	 -4.610012	
5.55509	 -4.636382	
5.58835	 -4.664796	
5.62162	 -4.684186	
5.65488	 -4.687049	
5.68814	 -4.681047	
5.72141	 -4.678302	
5.75467	 -4.683089	
5.78794	 -4.697388	
5.8212	 -4.719268	
5.85446	 -4.739868	
5.88773	 -4.752095	
5.92099	 -4.752331	
5.95426	 -4.742078	
5.98752	 -4.729428	
6.02078	 -4.719157	
6.05405	 -4.710836	
6.08731	 -4.701873	
6.12058	 -4.687643	
6.15384	 -4.668846	
6.1871	 -4.650827	
6.22037	 -4.635807	
6.25363	 -4.625520	
6.2869	 -4.620975	
6.32016	 -4.619790	
6.35342	 -4.622324	
6.38669	 -4.628708	
6.41995	 -4.633155	
6.45322	 -4.633639	
6.48648	 -4.632502	
6.51974	 -4.629229	
6.55301	 -4.627255	
6.58627	 -4.631877	
6.61954	 -4.640019	
6.6528	 -4.645980	
6.68606	 -4.645174	
6.71933	 -4.635891	
6.75259	 -4.628057	
6.78586	 -4.631839	
6.81912	 -4.643731	
6.85238	 -4.658570	
6.88565	 -4.674474	
6.91891	 -4.687388	
6.95218	 -4.697875	
6.98544	 -4.709838	
7.0187	 -4.722828	
7.05197	 -4.737676	
7.08523	 -4.751827	
7.1185	 -4.752886	
7.15176	 -4.739465	
7.18502	 -4.726699	
7.21829	 -4.725094	
7.25155	 -4.735767	
7.28482	 -4.752116	
7.31808	 -4.761758	
7.35134	 -4.762326	
7.38461	 -4.761661	
7.41787	 -4.761480	
7.45114	 -4.760118	
7.4844	 -4.757198	
7.51766	 -4.748485	
7.55093	 -4.733944	
7.58419	 -4.717977	
7.61746	 -4.697127	
7.65072	 -4.671600	
7.68398	 -4.652523	
7.71725	 -4.642009	
7.75051	 -4.634519	
7.78378	 -4.630487	
7.81704	 -4.628125	
7.8503	 -4.623670	
7.88357	 -4.619702	
7.91683	 -4.619529	
7.9501	 -4.623253	
7.98336	 -4.626448	
8.01662	 -4.623838	
8.04989	 -4.620618	
8.08315	 -4.623317	
8.11642	 -4.625994	
8.14968	 -4.621354	
8.18294	 -4.609927	
8.21621	 -4.597919	
8.24947	 -4.592214	
8.28274	 -4.591194	
8.316	 -4.590586	
8.34926	 -4.593085	
8.38253	 -4.599543	
8.41579	 -4.608871	
8.44906	 -4.623829	
8.48232	 -4.640005	
8.51558	 -4.648291	
8.54885	 -4.649865	
8.58211	 -4.651140	
8.61538	 -4.657644	
8.64864	 -4.673663	
8.6819	 -4.692979	
8.71517	 -4.702630	
8.74843	 -4.700522	
8.7817	 -4.692344	
8.81496	 -4.681231	
8.84822	 -4.673767	
8.88149	 -4.675713	
8.91475	 -4.684080	
8.94802	 -4.695565	
8.98128	 -4.709535	
9.01454	 -4.726945	
9.04781	 -4.744008	
9.08107	 -4.745676	
9.11434	 -4.730053	
9.1476	 -4.719450	
9.18086	 -4.726332	
9.21413	 -4.740474	
9.24739	 -4.747496	
9.28066	 -4.740624	
9.31392	 -4.730134	
9.34718	 -4.733920	
9.38045	 -4.747920	
9.41371	 -4.752459	
9.44698	 -4.745268	
9.48024	 -4.737559	
9.5135	 -4.733673	
9.54677	 -4.732315	
9.58003	 -4.726175	
9.6133	 -4.708424	
9.64656	 -4.689528	
9.67982	 -4.680654	
9.71309	 -4.672247	
9.74635	 -4.654345	
9.77962	 -4.633423	
9.81288	 -4.619234	
9.84614	 -4.613862	
9.87941	 -4.609868	
9.91267	 -4.598733	
9.94594	 -4.584064	
9.9792	 -4.573640	
10.0125	 -4.569185	
10.0457	 -4.570994	
10.079	 -4.575667	
10.1123	 -4.578986	
10.1455	 -4.584019	
10.1788	 -4.590305	
10.212	 -4.590747	
10.2453	 -4.584016	
10.2786	 -4.573381	
10.3118	 -4.564181	
10.3451	 -4.562839	
10.3784	 -4.568134	
10.4116	 -4.575849	
10.4449	 -4.584352	
10.4782	 -4.589666	
10.5114	 -4.594877	
10.5447	 -4.611375	
10.578	 -4.636823	
10.6112	 -4.655043	
10.6445	 -4.657076	
10.6777	 -4.649707	
10.711	 -4.652892	
10.7443	 -4.678798	
10.7775	 -4.710870	
10.8108	 -4.727504	
10.8441	 -4.729051	
10.8773	 -4.726182	
10.9106	 -4.730401	
10.9439	 -4.749431	
10.9771	 -4.772760	
11.0104	 -4.783173	
11.0436	 -4.782023	
11.0769	 -4.783699	
11.1102	 -4.796796	
11.1434	 -4.813034	
11.1767	 -4.812764	
11.21	 -4.795901	
11.2432	 -4.783956	
11.2765	 -4.782499	
11.3098	 -4.782087	
11.343	 -4.783405	
11.3763	 -4.791277	
11.4096	 -4.805643	
11.4428	 -4.822748	
11.4761	 -4.834994	
11.5093	 -4.838643	
11.5426	 -4.837052	
11.5759	 -4.833671	
11.6091	 -4.831832	
11.6424	 -4.832914	
11.6757	 -4.832076	
11.7089	 -4.829560	
11.7422	 -4.831832	
11.7755	 -4.836705	
11.8087	 -4.842135	
11.842	 -4.852265	
